<?xml version="1.0" standalone="no"?>
<!DOCTYPE svg PUBLIC "-//W3C//DTD SVG 20010904//EN"
 "http://www.w3.org/TR/2001/REC-SVG-20010904/DTD/svg10.dtd">
<svg version="1.0" xmlns="http://www.w3.org/2000/svg"
 width="512.000000pt" height="512.000000pt" viewBox="0 0 512.000000 512.000000"
 preserveAspectRatio="xMidYMid meet">

<g transform="translate(0.000000,512.000000) scale(0.100000,-0.100000)"
fill="#ffffff" stroke="none">
<path d="M4057 5105 c-276 -53 -519 -237 -642 -490 -70 -142 -88 -224 -88
-395 0 -118 4 -160 22 -225 44 -163 85 -227 486 -762 208 -277 381 -503 385
-503 4 0 177 226 385 503 401 535 442 599 486 762 18 65 22 107 22 225 0 171
-18 253 -88 395 -112 230 -333 411 -580 475 -106 28 -283 35 -388 15z m244
-445 c235 -45 399 -275 361 -506 -32 -196 -180 -344 -376 -376 -289 -48 -556
219 -508 508 42 252 277 420 523 374z"/>
<path d="M4148 4349 c-43 -22 -78 -81 -78 -129 0 -50 35 -107 80 -130 21 -11
53 -20 70 -20 50 0 107 35 130 80 11 21 20 53 20 70 0 50 -35 107 -80 130 -49
25 -94 25 -142 -1z"/>
<path d="M0 2518 l0 -2303 1634 1634 c899 899 1632 1640 1629 1645 -4 6 -23
36 -43 66 -230 342 -262 784 -84 1159 24 51 44 95 44 97 0 2 -715 4 -1590 4
l-1590 0 0 -2302z m1455 1692 c39 -6 99 -20 135 -31 68 -23 218 -96 259 -128
l24 -18 -88 -117 c-48 -64 -89 -116 -92 -116 -2 0 -35 18 -71 39 -207 123
-432 102 -587 -54 -104 -103 -148 -232 -128 -369 29 -204 176 -355 379 -388
175 -29 370 66 452 220 18 33 32 63 32 66 0 3 -61 6 -135 6 l-135 0 0 150 0
150 301 0 302 0 -6 -142 c-3 -79 -12 -165 -20 -193 -77 -271 -288 -478 -557
-546 -31 -8 -105 -14 -170 -14 -165 0 -275 33 -410 121 -335 218 -436 659
-231 1008 53 90 164 202 256 258 140 85 323 121 490 98z"/>
<path d="M3039 2832 l-414 -409 472 -479 c259 -264 753 -760 1097 -1104 l626
-625 0 1398 c0 768 -2 1397 -4 1397 -2 0 -135 -175 -296 -390 -161 -214 -296
-390 -300 -390 -4 0 -175 224 -380 498 -205 273 -376 501 -380 505 -4 5 -193
-176 -421 -401z"/>
<path d="M1434 1233 c-527 -533 -1017 -1028 -1088 -1100 l-129 -133 2194 0
2194 0 -1100 1100 c-605 605 -1103 1100 -1106 1100 -3 0 -437 -435 -965 -967z"/>
</g>
</svg>
