<?xml version="1.0" standalone="no"?>
<!DOCTYPE svg PUBLIC "-//W3C//DTD SVG 20010904//EN"
 "http://www.w3.org/TR/2001/REC-SVG-20010904/DTD/svg10.dtd">
<svg version="1.0" xmlns="http://www.w3.org/2000/svg"
 width="512.000000pt" height="512.000000pt" viewBox="0 0 512.000000 512.000000"
 preserveAspectRatio="xMidYMid meet">

<g transform="translate(0.000000,512.000000) scale(0.100000,-0.100000)"
fill="#636a82" stroke="none">
<path d="M1885 4786 c-38 -17 -80 -65 -95 -110 -8 -26 -8 -42 3 -74 8 -22 313
-599 678 -1281 l664 -1241 878 0 c482 0 877 3 877 6 0 17 -1387 2634 -1409
2658 -53 58 -26 56 -828 56 -591 -1 -744 -3 -768 -14z
M1518 4249 c-19 -30 -365 -578 -768 -1219 -683 -1085 -734 -1169
-738 -1216 -4 -50 5 -71 288 -690 161 -352 301 -661 311 -689 41 -112 169
-152 249 -77 24 23 1502 2348 1516 2387 4 9 -568 1091 -816 1544 -6 11 -17 0
-42 -40z
M1672 1042 l-453 -717 1583 -3 c1054 -2 1595 1 1618 7 20 6 48 23 63
39 14 15 164 282 333 592 l307 565 -6 74 c-5 63 -10 78 -34 103 -57 62 37 58
-1525 57 l-1433 0 -453 -717z"/>
</g>
</svg>
