<?xml version="1.0" encoding="UTF-8"?>
<!DOCTYPE svg PUBLIC "-//W3C//DTD SVG 1.1//EN" "http://www.w3.org/Graphics/SVG/1.1/DTD/svg11.dtd">
<svg xmlns="http://www.w3.org/2000/svg" version="1.1" width="64px" height="64px" style="shape-rendering:geometricPrecision; text-rendering:geometricPrecision; image-rendering:optimizeQuality; fill-rule:evenodd; clip-rule:evenodd" xmlns:xlink="http://www.w3.org/1999/xlink">
<g><path style="opacity:0.97" fill="#ffffff" d="M 244.5,-0.5 C 251.833,-0.5 259.167,-0.5 266.5,-0.5C 291.718,5.54778 308.551,20.8811 317,45.5C 317.853,49.4686 318.519,53.4686 319,57.5C 319.5,96.8319 319.667,136.165 319.5,175.5C 330.5,175.5 341.5,175.5 352.5,175.5C 352.333,156.83 352.5,138.164 353,119.5C 361.06,88.7086 380.893,75.8753 412.5,81C 431.293,86.7925 442.793,99.2925 447,118.5C 447.667,146.5 447.667,174.5 447,202.5C 439.919,239.914 417.753,262.414 380.5,270C 360.169,270.5 339.836,270.667 319.5,270.5C 319.5,340.833 319.5,411.167 319.5,481.5C 337.503,481.333 355.503,481.5 373.5,482C 383.4,487.37 385.9,495.203 381,505.5C 378.886,508.121 376.386,510.121 373.5,511.5C 294.833,511.5 216.167,511.5 137.5,511.5C 127.697,505.921 125.197,497.921 130,487.5C 131.938,484.894 134.438,483.061 137.5,482C 155.497,481.5 173.497,481.333 191.5,481.5C 191.5,438.167 191.5,394.833 191.5,351.5C 172.83,351.667 154.164,351.5 135.5,351C 95.6723,344.839 71.8389,322.005 64,282.5C 63.3333,243.833 63.3333,205.167 64,166.5C 71.4803,139.361 89.3136,126.528 117.5,128C 140.333,132.167 153.833,145.667 158,168.5C 158.5,197.831 158.667,227.165 158.5,256.5C 169.5,256.5 180.5,256.5 191.5,256.5C 191.333,190.166 191.5,123.832 192,57.5C 196.454,26.2022 213.954,6.86883 244.5,-0.5 Z M 247.5,30.5 C 267.083,28.1985 280.249,36.1985 287,54.5C 288.309,101.796 288.976,149.129 289,196.5C 290.833,201 294,204.167 298.5,206C 323.167,206.667 347.833,206.667 372.5,206C 378,204.5 381.5,201 383,195.5C 383.028,170.437 383.695,145.437 385,120.5C 391.298,109.906 399.798,107.74 410.5,114C 412.969,116.441 414.802,119.274 416,122.5C 416.667,148.167 416.667,173.833 416,199.5C 409.647,224.191 393.814,237.691 368.5,240C 345.167,240.333 321.833,240.667 298.5,241C 294.026,242.808 290.859,245.974 289,250.5C 288.5,327.499 288.333,404.499 288.5,481.5C 266.5,481.5 244.5,481.5 222.5,481.5C 222.667,431.166 222.5,380.832 222,330.5C 220.073,325.572 216.573,322.406 211.5,321C 186.833,320.667 162.167,320.333 137.5,320C 114.201,316.033 100.034,302.533 95,279.5C 94.3333,243.167 94.3333,206.833 95,170.5C 100.093,159.468 108.26,156.301 119.5,161C 122.04,163.205 124.207,165.705 126,168.5C 127.314,204.107 127.981,239.773 128,275.5C 130.026,282.19 134.526,286.023 141.5,287C 163.833,287.667 186.167,287.667 208.5,287C 215.013,286.16 219.513,282.66 222,276.5C 222.333,204.167 222.667,131.833 223,59.5C 225.595,45.0757 233.762,35.409 247.5,30.5 Z"/></g>
</svg>
