<?xml version="1.0" standalone="no"?>
<!DOCTYPE svg PUBLIC "-//W3C//DTD SVG 20010904//EN"
 "http://www.w3.org/TR/2001/REC-SVG-20010904/DTD/svg10.dtd">
<svg version="1.0" xmlns="http://www.w3.org/2000/svg"
 width="512.000000pt" height="512.000000pt" viewBox="0 0 512.000000 512.000000"
 preserveAspectRatio="xMidYMid meet">

<g transform="translate(0.000000,512.000000) scale(0.100000,-0.100000)"
fill="#636a82" stroke="none">
<path d="M1450 5104 c-46 -20 -74 -47 -93 -92 -19 -44 -907 -4774 -907 -4831
0 -76 35 -130 105 -162 38 -18 112 -19 1858 -19 1988 0 1852 -4 1914 60 68 70
82 -29 -206 1504 l-259 1378 388 498 c214 274 396 513 405 531 26 49 17 137
-19 183 -61 81 -172 96 -250 35 -15 -12 -158 -190 -318 -395 -160 -206 -292
-373 -294 -372 -1 2 -66 343 -144 758 -77 415 -147 778 -155 805 -8 28 -27 62
-42 77 -63 61 -16 58 -1025 58 -802 -1 -928 -3 -958 -16z m1866 -1209 l162
-860 -577 -742 c-539 -695 -578 -743 -611 -748 -227 -35 -319 -61 -459 -126
-267 -125 -512 -363 -646 -628 -46 -93 -92 -227 -114 -334 l-18 -92 -105 -3
-106 -3 9 43 c5 24 189 1006 409 2183 221 1177 403 2148 406 2158 5 16 47 17
747 15 l742 -3 161 -860z m454 -2420 c110 -588 202 -1080 205 -1092 5 -23 4
-23 -99 -23 l-105 0 -7 38 c-86 499 -436 915 -909 1076 -50 17 -92 35 -94 39
-2 5 178 242 400 528 222 285 405 515 406 511 2 -4 93 -488 203 -1077z m-1110
-318 c177 -46 314 -124 449 -252 144 -138 258 -339 286 -502 l7 -43 -992 0
-992 0 7 32 c22 109 85 255 157 361 146 215 389 371 658 422 111 21 300 13
420 -18z"/>
</g>
</svg>
