<?xml version="1.0" standalone="no"?>
<!DOCTYPE svg PUBLIC "-//W3C//DTD SVG 20010904//EN"
 "http://www.w3.org/TR/2001/REC-SVG-20010904/DTD/svg10.dtd">
<svg version="1.0" xmlns="http://www.w3.org/2000/svg"
 width="3509.000000pt" height="3554.000000pt" viewBox="0 0 3509.000000 3554.000000"
 preserveAspectRatio="xMidYMid meet">

<g transform="translate(0.000000,3554.000000) scale(0.110000,-0.110000)"
fill="#636a82" stroke="none">
<path d="M24605 31733 c-3089 -79 -5729 -696 -7561 -1769 -949 -556 -1700
-1242 -2219 -2029 -427 -647 -718 -1408 -840 -2195 -46 -291 -54 -390 -81
-910 l-6 -115 -162 -105 c-550 -359 -1192 -845 -1706 -1294 -386 -337 -943
-882 -1251 -1221 -1292 -1427 -2225 -2961 -2822 -4640 -359 -1009 -574 -2031
-659 -3125 -20 -267 -17 -1332 6 -1585 129 -1468 550 -2821 1261 -4055 1202
-2087 3136 -3661 5415 -4408 709 -233 1370 -370 2165 -449 265 -27 1495 -27
1755 0 1302 132 2411 450 3515 1007 2673 1350 4584 3860 5169 6790 140 702
193 1296 183 2055 -6 435 -18 633 -62 1010 -198 1676 -822 3258 -1821 4617
-907 1235 -2097 2244 -3459 2933 -1136 574 -2571 988 -3695 1065 -165 11 -494
13 -619 3 l-84 -6 -166 -111 c-1090 -731 -2272 -1868 -3220 -3100 -513 -667
-969 -1383 -1297 -2038 -87 -174 -196 -409 -192 -414 2 -1 30 29 63 68 509
605 1221 1159 1980 1542 981 495 2051 733 3130 695 1977 -69 3853 -1114 4997
-2784 365 -533 663 -1155 844 -1760 468 -1567 333 -3230 -381 -4680 -767
-1559 -2132 -2743 -3785 -3283 -505 -165 -1024 -264 -1578 -302 -197 -13 -637
-13 -834 0 -1418 97 -2704 624 -3788 1554 -135 116 -530 510 -646 646 -488
568 -866 1135 -1183 1770 -447 897 -682 1755 -763 2785 -16 205 -16 829 0
1050 75 1013 323 2078 719 3075 753 1898 2045 3653 3868 5250 1819 1594 4141
3005 6870 4175 1436 615 2976 1156 4518 1584 385 107 939 252 944 247 5 -4
-256 -141 -1262 -661 -868 -449 -1301 -675 -1760 -918 -2100 -1112 -3691
-2049 -4949 -2914 -237 -163 -366 -255 -743 -528 -45 -33 -83 -63 -83 -66 0
-4 105 -45 233 -91 1701 -623 3161 -830 4447 -632 616 95 1167 270 1720 546
1064 531 1984 1349 3141 2793 219 273 416 526 839 1080 824 1076 1193 1527
1666 2037 284 305 692 692 937 888 l67 54 -32 14 c-76 32 -427 147 -603 198
-1454 421 -3554 670 -5585 662 -250 -1 -500 -3 -555 -5z"/>
</g>
</svg>
